<?xml version="1.0" encoding="utf-8"?>
<!-- Generator: Adobe Illustrator 24.0.2, SVG Export Plug-In . SVG Version: 6.00 Build 0)  -->
<svg version="1.1" id="Layer_1" xmlns="http://www.w3.org/2000/svg" xmlns:xlink="http://www.w3.org/1999/xlink" x="0px" y="0px"
	 viewBox="0 0 400 400" style="enable-background:new 0 0 400 400;" xml:space="preserve">
<path d="M200,183.35c21.29-0.04,38.51-17.26,38.55-38.56c-0.04-21.29-17.26-38.51-38.55-38.55c-21.29,0.04-38.51,17.26-38.55,38.55
	C161.48,166.09,178.71,183.32,200,183.35z M221.73,193.38h-43.46c-14.23,0-27.08,5.76-36.41,15.08
	c-9.32,9.32-15.08,22.18-15.08,36.41v35.76c20.56,8.24,45.86,13.12,73.21,13.12c27.36,0,52.66-4.88,73.22-13.12v-35.76
	c0-14.22-5.76-27.08-15.08-36.41C248.81,199.14,235.95,193.38,221.73,193.38z"/>
</svg>
